/* XPM */
static char *result[] = {
/* columns rows colors chars-per-pixel */
"50 50 214 2 ",
"   c #1F222A",
".  c #1E2126",
"X  c #22242C",
"o  c #25282E",
"O  c #262A31",
"+  c #292D34",
"@  c #2E2F38",
"#  c #342F35",
"$  c #2E323A",
"%  c #2C3135",
"&  c #353135",
"*  c #3C3334",
"=  c #32343C",
"-  c #35393E",
";  c #3D2723",
":  c #4C291C",
">  c #522D1D",
",  c #592D17",
"<  c #64311E",
"1  c #69341C",
"2  c #673519",
"3  c #462D26",
"4  c #532E21",
"5  c #592F22",
"6  c #4D332B",
"7  c #4C3027",
"8  c #5C3323",
"9  c #53352B",
"0  c #5D362B",
"q  c #593325",
"w  c #473939",
"e  c #583931",
"r  c #623223",
"t  c #643B2A",
"y  c #673B27",
"u  c #6D3F2A",
"i  c #7B4323",
"p  c #7D492B",
"a  c #774428",
"s  c #69473B",
"d  c #7C4B32",
"f  c #754B36",
"g  c #7D5139",
"h  c #6F4029",
"j  c #363B43",
"k  c #3B3A45",
"l  c #3C3E4B",
"z  c #493E43",
"x  c #3E444B",
"c  c #3B4045",
"v  c #44444E",
"b  c #4B444C",
"n  c #41494C",
"m  c #4B4145",
"M  c #574747",
"N  c #4C4652",
"B  c #464B52",
"V  c #4A4954",
"C  c #4C4D5B",
"Z  c #454651",
"A  c #534B54",
"S  c #524E5B",
"D  c #5D4F54",
"F  c #4E515D",
"G  c #4B5155",
"H  c #53515E",
"J  c #5C525B",
"K  c #545659",
"L  c #6B4D43",
"P  c #614C4B",
"I  c #654A43",
"U  c #6C534D",
"Y  c #6F5145",
"T  c #745142",
"R  c #72544C",
"E  c #7A5648",
"W  c #635254",
"Q  c #6B5654",
"!  c #64565B",
"~  c #6C5B5C",
"^  c #66575C",
"/  c #725653",
"(  c #735A54",
")  c #7A5C53",
"_  c #735E5D",
"`  c #7B5F59",
"'  c #6B4C4A",
"]  c #7A615C",
"[  c #4F5060",
"{  c #535464",
"}  c #595966",
"|  c #555669",
" . c #56596B",
".. c #5A5B6C",
"X. c #585765",
"o. c #5C5E71",
"O. c #504F60",
"+. c #645A63",
"@. c #6B5C63",
"#. c #635C6A",
"$. c #735F62",
"%. c #5A6265",
"&. c #5F656A",
"*. c #6B626B",
"=. c #616B6D",
"-. c #69626A",
";. c #726165",
":. c #756467",
">. c #656E71",
",. c #676472",
"<. c #776D77",
"1. c #667174",
"2. c #6D767B",
"3. c #6D7B7C",
"4. c #687475",
"5. c #737A7E",
"6. c #844B2C",
"7. c #854B2A",
"8. c #8B522E",
"9. c #92532F",
"0. c #834F32",
"q. c #8C5333",
"w. c #8B563B",
"e. c #8C5A3E",
"r. c #85553B",
"t. c #925633",
"y. c #955934",
"u. c #9C5C35",
"i. c #965C3C",
"p. c #9C5E3A",
"a. c #9A5735",
"s. c #A35E3A",
"d. c #A15B35",
"f. c #9D603C",
"g. c #A3633C",
"h. c #AA663B",
"j. c #AD693E",
"k. c #A26237",
"l. c #B36B3E",
"z. c #8C5C43",
"x. c #845A46",
"c. c #925D42",
"v. c #995F42",
"b. c #815E54",
"n. c #8D614D",
"m. c #946144",
"M. c #9B6343",
"N. c #94634B",
"B. c #9C664A",
"V. c #9B694A",
"C. c #8C6453",
"Z. c #826359",
"A. c #936958",
"S. c #A36542",
"D. c #AD6B43",
"F. c #A46C4C",
"G. c #AC6D4A",
"H. c #A66943",
"J. c #B26D43",
"K. c #B56F45",
"L. c #B67045",
"P. c #BA7244",
"I. c #BC754A",
"U. c #B7714A",
"Y. c #A66D50",
"T. c #AB7154",
"R. c #866865",
"E. c #997465",
"W. c #C3794E",
"Q. c #C0774B",
"!. c #C37A50",
"~. c #747D82",
"^. c #758284",
"/. c #7B8689",
"(. c #7C8B8C",
"). c #798686",
"_. c #818E8F",
"`. c #828F91",
"'. c #859394",
"]. c #899596",
"[. c #8A9798",
"{. c #8B9C9C",
"}. c #859898",
"|. c #909C9E",
" X c #8D9EA1",
".X c #919EA1",
"XX c #8EA1A2",
"oX c #93A3A4",
"OX c #99A5A7",
"+X c #95A6A9",
"@X c #9AA7A8",
"#X c #97A8AA",
"$X c #9BACAC",
"%X c #9EAEB0",
"&X c #9FB1B2",
"*X c #A1ADAE",
"=X c #A3AFB1",
"-X c #A3B3B4",
";X c #A9B5B6",
":X c #A5B7B9",
">X c #A9B6B9",
",X c #A7B9B9",
"<X c #ABBBBB",
"1X c #B1BBBD",
"2X c #B4BFC0",
"3X c #B4C4C4",
"4X c #BCCACB",
"5X c #B9C7C9",
"6X c #AFC2C2",
"7X c #C4CCCE",
"8X c #C6D4D5",
"9X c #C9D4D5",
"0X c #C0CFD0",
"qX c None",
/* pixels */
"qXqXqXqXqXqXqXqXqXqXqXqXqXqXqXqXqXqXqXqXqXqXqXqXqXqXqXqXqXqXqXqXqXqXqXqXqXqXqXqXqXqXqXqXqXqXqXqXqXqX",
"qXqXqXqXqXqXqXqXqXqXqXqXqXqXqXqXqXqXqXqXqXqXqXqXqXqXqXqXqXqXqXqXqXqXqXqXqXqXqXqXqXqXqXqXqXqXqXqXqXqX",
"qXqXqXqXqXqXqXqXqXqXqXqXqXqXqXqXqXqXqXqXqXqXqXqXqXqXqXqXqXqXqXqXqXqXqXqXqXqXqXqXqXqXqXqXqXqXqXqXqXqX",
"qXqXqXqXqXqXqXqXqXqXqXqXqXqXqXqXqXqXqXqXqXqXqXqXqXqXqXqXqXqXqXqXqXqXqXqXqXqXqXqXqXqXqXqXqXqXqXqXqXqX",
"qXqXqXqXqXqXqXqXqXqXqXqXqXqXqXqXqXqXqXqXqX'.'.<X<X;X3X<X<X>XqXqXqXqXqXqXqXqXqXqXqXqXqXqXqXqXqXqXqXqX",
"qXqXqXqXqXqXqXqXqXqXqXqXqXqXqXqXqXqXqX=X$X#X#X-X5X5X8X9X3X.XOX;XqXqXqXqXqXqXqXqXqXqXqXqXqXqXqXqXqXqX",
"qXqXqXqXqXqXqXqXqXqXqXqXqXqXqX>X4X-X].$X+X X,X<X-X@X-X<X:X<X1X*X{.<X;XqXqXqXqXqXqXqXqXqXqXqXqXqXqXqX",
"qXqXqXqXqXqXqXqXqXqXqXqXqX@X[.#X3X>X/.$X:X%X-X-X{.(.oX-X<X2X7X|.$X<X-X;X-X=XqXqXqXqXqXqXqXqXqXqXqXqX",
"qXqXqXqXqXqXqXqXqXqXqX{.1.{.XX+X#X%XoX'..X/.%.j O X $ F 3.OX$X].,X$XoX+X$X^./.1XqXqXqXqXqXqXqXqXqXqX",
"qXqXqXqXqXqXqXqXqX*X-X;X'./.XX}.oX$X^.% + X + j v Z k $ o o + K +X$XXXXX{.^.5X3X$XqXqXqXqXqXqXqXqXqX",
"qXqXqXqXqXqXqXqX$X$X#X$X-X'. XoX5.x o @ N D M V C S V N w m - X - >.XX#X).$X3X<X;X-XqXqXqXqXqXqXqXqX",
"qXqXqXqXqXqXqX*X+X#X+X X{.@X2.x O j D Q N.t.9 Z C { C b > a Y Q m o - %.XX6X#X X:X<X-XqXqXqXqXqXqXqX",
"qXqXqXqXqXqX].).{.$X:X-XoX>.O $ K R V.E z.a.0 [ | S  .A > p d z.E Q m o K {.}. XXX%X%X'.qXqXqXqXqXqX",
"qXqXqXqXqX1X{.4.'.-X<X$X%.+ v ~ N.u.j.Z.R.9.0 [ | H | A , a :.R.q.D.C.b @ - ).#X#X.X5.).*XqXqXqXqXqX",
"qXqXqXqX;X>X<X$X(.(.'.n O G R p j.l.P.f.M.u.0 [ | H | S q 6.F.F.y.l.J.f M - $ ~.'.3.(.oX+X{.qXqXqXqX",
"qXqXqXqX;X-X,X<X6X'.O O A C.y.6.L.I.I.f.D.s.0 X...F o.J , 8.I.U.u.L.L.7.z.U $ . &.#X#X XoX-X>XqXqXqX",
"qXqXqXqX,X,X&X,X,X3.o N E l.u.6.P.I.Q.k.D.s.0 | ..O.o.J 0 0.Q.U.s.I.K.7.S.S.D + n oXoXXX#X:X=XqXqXqX",
"qXqXqX*X&X#X{.(.{.c k U t.J.u.p I.I.W.f.G.s.t | ..O.o.J r q.Q.U.s.I.K.6.D.l.g z + ^.+XXX X$X$XqXqXqX",
"qXqXqX%X&X{.(.}.4.= A e.q.n.s p I.I.W.f.J.s.r | o.O.o.J 5 t.W.U.g.I.P.u w.H.7.s = B oX$X+X:X;XqXqXqX",
"qXqXqXXX&X{.{.oXx k s z.Q K J / I.W.!.y.J.s.0 | o.N o.J 5 t.W.U.S.K.H.P D ^ f r.M O (.-X$X-X;XqXqXqX",
"qXqXqX$X{.{.{.1.+ M r.` W c.) E I.!.!.8.J.s.t { o.C o.J 5 a.W.K.h.D.F.+.b.Q J f.E + n {.|.{.@XqXqXqX",
"qXqXqX<X-X}.(.B X A Z.} L F.N.g G.T.T.0.G.s.r { ..N o.S 4 a.W.G.v.S.G.f F.S.( Z.x.# o (..XoX*XqXqXqX",
"qXqXqX3X9X4X%X%.X { J ,.-.-.-.-.#.+.+.#.A.s.r H ..N o.J 4 w.A.;.^ _ $.~ ;.:.*.#.J = @ $X3X<X-X3XqXqX",
"qXqXqX-X6X3X-X&.X ! _ } U A.) E A.A.C.R B.s.0 { ..Z o.S 4 t.R.$.( ) _ Q Z.:.-.#.@.j & #X3X<X%X1XqXqX",
"qXqXqXoX{.:X-X&.o Y F._ s f.x.x.I.Q.I.t.S.s.r O...v o.S 8 a.!.G.S.L.G.f F.M.Q Z.N.* - %X+X+X$X-XqXqX",
"qXqXqXoX(.XX:X&.  Y j.N.J W ^ ( I.U.H.y.s.s.r O...N o.J r a.!.J.g.I.F.! ) U ! V.f.* - @X(.XX@X;XqXqX",
"qXqXqX$X{.oX<X=.  Y l.j.T ( D e.I.J.s.a.d.s.r A ..V ..K t t.!.K.k.W.G.P D Q z.j.f.* c }.3.XX$X;XqXqX",
"qXqXqX{.(.[.|.G   s J.j.y.L.u.y.I.j.z.x.v.s.r S ..C ..S 8 8.U.B.N.I.P.6.M.G.g.l.f.* % 4.&.'._.;XqXqX",
"qXqXqX,X).{.oXB   I D.j.y.P.k.u.P.p.$.2.E.s.< S o.O.o.S q 6.c.:.5.T.I.t.Q.l.l.l.M.* O (.+X+X+X-XqXqX",
"qXqXqX4X%X6X3X3.  s J.j.y.P.k.p.I.k.Q ,.b.d.< A ..H o.C > 8.c.#.1.Y.P.y.l.l.I.l.m.& x <X5X3X,X<XqXqX",
"qXqXqX&XoX$X,X3.X I D.h.t.L.s.p.D.x.' ! I z.r z ..| | A 4 d x.Q Q E G.y.l.l.l.l.f.& x $X<X6X,X-XqXqX",
"qXqXqX{.{.}.OX3.  I j.d.8.P.a.u.p./ F.i.5 ' r A o...o.A 4 t b.F.q.s n.y.j.I.l.j.e.& G ,X<X$X$X-XqXqX",
"qXqXqX%X#X$X:X^.  M j.h.y.P.t.f.f.R N.w.e T < b ..o.o.N 3 h ) B.d L N.a.j.P.l.l.f.& G ,X-X+X%X,XqXqX",
"qXqXqX$XoXXXOX1.X M j.h.u.l.d.t.L.M.x.T T i.< b  .o...Z 4 a.c.E s N.K.t.h.J.P.l.e.& x XXoXXXoX>XqXqX",
"qXqXqXoX).^.@X=.X M h.l.y.m.0.8.P.l.L.D.a.d.< A ..o.o.C > u.U.K.a.K.K.8.u.D.l.P.m.& c }.{.{.'.*XqXqX",
"qXqXqX$X@X{.8X'.X M h.h.R ! K E L.P.P.L.a.d.< z | o...Z > a.I.P.u.K.H.' D R F.l.e.& K :X<X<X-X;XqXqX",
"qXqXqX{.oX{.3X_.  M g.) W E ` Q D.P.P.L.s.d.r z { o...Z 4 9.I.P.u.K.M.^ / W ~ S.e.& G oX{.-X<X-XqXqX",
"qXqXqX}.{.@X#X^.  m N.@.L g.N.d S.L.L.H.h.d.1 M ..o.o.A 5 q.U.K.a.J.G.x.M.m.~ C.x.= - 3.$X<X-X-XqXqX",
"qXqXqX@X+X$X&X~.  B J ,.-.;.;.~ ~ ~ @.;.c.a.r z O.o.| N t 0.A.R./ ] Z./ ] Z.@.@.D = n oX-X%X$X@XqXqX",
"qXqX1X|. X'.{.>.. K @.#.Q ] ] Q / / ` _ c.a.1 z | ..| Z t 0.b.#.^ ~ @.~ @.;.*...} j n {.'.'.).*XqXqX",
"qXqXqX3X4X4X8XoXO z n.;.s f.m.f k.l.P.f.u.u.1 M | .. .A t t.J.H.t.S.H.z.e.p.( ] ) = >.3X2XoX(.5XqXqX",
"qXqXqX4X8X9X3XoX@ w M.n.D L Q M h.l.l.f.6.8.1 w C ..{ b u 0.c.S.t.j.S.Q s L ! m.E # 2.3X2X#X X7XqXqX",
"qXqXqX4X3X6X$XoX@ w f.f.Y D D s f.h.h.w.@./ < z { { | N t t <.c.7.k.p.W H ! s t.g = ~.:X<X:XXX8XqXqX",
"qXqXqX}.oX}. XoX@ * h a , y y , 1 i 7.y e t : w { S { V 4 , f u 2 i u y 9 t 1 1 e = ~.%X+X=X#X7XqXqX",
"qXqXqX'.&X(.{.oX= j 6 6 ; 7 9 3 7 9 9 6 3 3 ; z C C { Z w 3 9 9 3 9 0 e 3 9 7 9 w j ~.-X+X%X:X9XqXqX",
"qXqXqX-X<X@X&X+Xj l C v n V C Z C C C C C F H { X.X.| X.| X.} X.X.} .. .} } } O.O.z _.>X%X;X;X8XqXqX",
"qXqXqX<X>X;X;XOX| x C l x B B v B [ Z C { [ C C X.F [ { X.H { | { { { { | | [ { ..#..X1X<X<X>X7XqXqX",
"qXqXqXqXqXqXqXqXqXqXqXqXqXqXqXqXqXqXqXqXqXqXqXqXqXqXqXqXqXqXqXqXqXqXqXqXqXqXqXqXqXqXqXqXqXqXqXqXqXqX",
"qXqXqXqXqXqXqXqXqXqXqXqXqXqXqXqXqXqXqXqXqXqXqXqXqXqXqXqXqXqXqXqXqXqXqXqXqXqXqXqXqXqXqXqXqXqXqXqXqXqX",
"qXqXqXqXqXqXqXqXqXqXqXqXqXqXqXqXqXqXqXqXqXqXqXqXqXqXqXqXqXqXqXqXqXqXqXqXqXqXqXqXqXqXqXqXqXqXqXqXqXqX"
};
