/* XPM */
static char *_cd896abfcfd4f42e46dc3a386554aeeFzwracOaJLhDJqE6[] = {
/* columns rows colors chars-per-pixel */
"50 50 218 2 ",
"   c None",
".  c #3D3403",
"X  c #6F1E0B",
"o  c #7B1C03",
"O  c #771D08",
"+  c #641414",
"@  c #592905",
"#  c #5C3502",
"$  c #503513",
"%  c #692905",
"&  c #7A2304",
"*  c #7D2C0D",
"=  c #762509",
"-  c #643302",
";  c #6B320A",
":  c #653806",
">  c #6A2915",
",  c #782B19",
"<  c #763E1A",
"1  c #68372F",
"2  c #2D4700",
"3  c #384400",
"4  c #3E5600",
"5  c #434500",
"6  c #414B00",
"7  c #4F5500",
"8  c #59500A",
"9  c #714918",
"0  c #614F09",
"q  c #516701",
"w  c #547105",
"e  c #637C0F",
"r  c #646C10",
"t  c #686F14",
"y  c #707723",
"u  c #801A11",
"i  c #801C08",
"p  c #802200",
"a  c #83250E",
"s  c #83280B",
"d  c #873609",
"f  c #852312",
"g  c #852E15",
"h  c #862B18",
"j  c #892A1B",
"k  c #913B17",
"l  c #803423",
"z  c #822B24",
"x  c #97431E",
"c  c #8E4F33",
"v  c #A24F23",
"b  c #AA5630",
"n  c #917134",
"m  c #B96D37",
"M  c #B16A3A",
"N  c #C1733D",
"B  c #976160",
"V  c #76A613",
"C  c #73BE1E",
"Z  c #77922E",
"A  c #7CB42A",
"S  c #7BC836",
"D  c #6F8F42",
"F  c #71854B",
"G  c #7EAF4B",
"H  c #7CA75E",
"J  c #72AE60",
"K  c #7DA474",
"L  c #7FC950",
"P  c #80AD1B",
"I  c #83A218",
"U  c #8CB21F",
"Y  c #849E21",
"T  c #889738",
"R  c #8F863B",
"E  c #87AE26",
"W  c #95AD24",
"Q  c #98A828",
"!  c #87B927",
"~  c #96B429",
"^  c #9FA030",
"/  c #88B537",
"(  c #97B533",
")  c #ADA437",
"_  c #A1B13F",
"`  c #ACAE36",
"'  c #95D83E",
"]  c #8BC936",
"[  c #A2CB3F",
"{  c #999341",
"}  c #AD8954",
"|  c #AC8D5B",
" . c #A78C5A",
".. c #B48E5C",
"X. c #AA905C",
"o. c #B4935C",
"O. c #BB9857",
"+. c #A1984C",
"@. c #95BB48",
"#. c #8EA35F",
"$. c #90B054",
"%. c #BDA15F",
"&. c #BEB953",
"*. c #A98662",
"=. c #B68F65",
"-. c #B59364",
";. c #BA9363",
":. c #B49D6B",
">. c #B99A6C",
",. c #B89768",
"<. c #BD9D70",
"1. c #AA9162",
"2. c #90B56E",
"3. c #98A778",
"4. c #BEA376",
"5. c #C98248",
"6. c #D3844D",
"7. c #C4995E",
"8. c #DC9359",
"9. c #E09A5F",
"0. c #C2B543",
"q. c #CBBC4C",
"w. c #C7B945",
"e. c #D4BD4E",
"r. c #DBB44E",
"t. c #CDA15F",
"y. c #DFAF50",
"u. c #DFB652",
"i. c #DBAF49",
"p. c #E8AD4B",
"a. c #E4B44D",
"s. c #EAB44E",
"d. c #E6B84E",
"f. c #E6AF54",
"g. c #F0AF52",
"h. c #E5B553",
"j. c #EBB453",
"k. c #E5B953",
"l. c #ECB954",
"z. c #E4B35B",
"x. c #ECB359",
"c. c #E4BB5B",
"v. c #ECBA5C",
"b. c #F2B355",
"n. c #C59665",
"m. c #E59D67",
"M. c #C8A465",
"N. c #DAAB6A",
"B. c #D7AC68",
"V. c #DBB76C",
"C. c #DFB573",
"Z. c #C6AC7A",
"A. c #EAA96B",
"S. c #E4B563",
"D. c #EBBB65",
"F. c #E3B56A",
"G. c #ECBC6F",
"H. c #E7B964",
"J. c #F3B96A",
"K. c #E3B473",
"L. c #ECB576",
"P. c #E6BE72",
"I. c #ECB97A",
"U. c #E9BE72",
"Y. c #F2BB7C",
"T. c #F7B77A",
"R. c #97C74A",
"E. c #8FD746",
"W. c #9AD34B",
"Q. c #98DC49",
"!. c #97CF52",
"~. c #A2D653",
"^. c #A8DD57",
"/. c #ABCB4B",
"(. c #98E84A",
"). c #9FE55E",
"_. c #9EF757",
"`. c #83E342",
"'. c #A5E74A",
"]. c #A8E756",
"[. c #B4E55B",
"{. c #90C86F",
"}. c #B1CA6D",
"|. c #9BEB60",
" X c #ABE365",
".X c #A0EF79",
"XX c #B8E570",
"oX c #B6E861",
"OX c #CAC44B",
"+X c #D5C14F",
"@X c #D9C656",
"#X c #DAC360",
"$X c #ECC36E",
"%X c #E6C562",
"&X c #AF9684",
"*X c #92B781",
"=X c #B9A783",
"-X c #C69A84",
";X c #C7A789",
":X c #DBAD89",
">X c #C7B388",
",X c #D5B68D",
"<X c #D7BA96",
"1X c #F7BC82",
"2X c #FBBF94",
"3X c #D3BBAC",
"4X c #AAC69E",
"5X c #9FE089",
"6X c #AED2A3",
"7X c #D6C891",
"8X c #FAC78C",
"9X c #D9C4A4",
"0X c #DED3B4",
"qX c #F5DABB",
"wX c #F0D7B9",
"eX c #E5D0A8",
"rX c #D1EEB5",
"tX c #CEE9C0",
/* pixels */
"                                                                                                    ",
"                                                                                                    ",
"                                                                                                    ",
"                                                                                                    ",
"                                                                                                    ",
"                                                                                                    ",
"                                                                                                    ",
"                                                                                                    ",
"                                                                                                    ",
"                                                                                                    ",
"                                                                                                    ",
"                                                                                                    ",
"                                      qX,X>.;.o.o...} | >.;X                                        ",
"                                  ,X=.} O.t.N.S.S.F.F.K.B.n...-.,X                                  ",
"                              9X} 7.B.U.G.H.x.h.v.x.h.z.S.H.F.F.O. .<X                              ",
"                            =X .V.$X$Xc.f.h.j.a.l.l.l.j.j.h.x.z.$XC.} 1.                            ",
"                          | 7.U.u.z.c.h.j.l.s.d.h.a.j.j.h.j.j.j.x.J.P.%.X.                          ",
"                        Z.O.S.v.z.z.k.h.s.s.d.h.u.k.j.j.k.h.g.g.g.b.H.V.M.:.                        ",
"                        } B.D.v.h.v.k.l.j.s.l.k.k.z.l.x.h.l.l.s.l.a.k.k.$X} 9X                      ",
"                      >XM.J.f.l.x.j.v.l.s.j.j.j.h.h.l.x.k.h.j.s.l.a.d.i.H.C.|                       ",
"                      :.N.S.x.g.p.j.l.s.s.s.p.j.x.x.b.x.l.k.s.s.p.l.s.d.y.P.|                       ",
"                      o.F.x.x.g.s.j.j.s.s.g.s.x.j.g.j.j.h.k.d.j.f.j.s.s.s.S.M.9X                    ",
"                    eX%.P.c.h.h.j.h.j.h.g.l.b.g.j.x.b.j.j.h.d.j.l.h.s.p.b.J.B.,X                    ",
"                    7X&.#Xe.u.r.h.h.h.a.j.j.j.h.x.x.f.x.j.h.d.k.h.a.l.l.p.J.t.,X                    ",
"              6X3.2.T ( /.#Xu.H.%Xc.u.d.l.+Xk.k.v.f.j.h.v.j.d.h.c.y.k.a.h.%X) }.                    ",
"              *X{..XXX~ ( ^ ^ &.) q.` 0.OXOXOX+X+Xe.@X@Xe.e.@Xe.OX@XOXq.w.` Z @.G K 4X              ",
"                3.D Z ^.].] ! V [ ` ~ [ V P U U W W W I ~ ~ ~ W I ~ E E [ ! ] |..X5XK               ",
"                  F 2 R.Q.E.' '.'.[.'.' C ' _.(.'.'.] V U [ /.[.' ! W.W.@.R.!.L {.J 4X              ",
"                  *X. $.XX~.^./ E A !. XS L _.(._.(.E.^.W.W.~.].(.(.~.Z 5 8 3 #.rXrX                ",
"                  &X. 8 y Z r 7 6 3 q R. X].E.S !. X X/ w 6 e @.^.[.&.0 # 9 $ 0X                    ",
"                  3X@ < @ % % % % 9 - 9 +.T 7 5 r { R 0 # # : 0 y { n < l , 1                       ",
"                    > > = & a f u j g * ; - - @ - % ; % , X X = - ; % , , + B                       ",
"                    -Xc c g & p s a i s s = * = g g h h u u j u g s & = > c &X                      ",
"                    ;X:X8Xm.6.6.v b x k k & o s o o o O s s i i p d * b n.,X-X                      ",
"                    eX1.:X1XY.1XT.T.A.L.A.5.5.9.m M 8.5.d d N N m.9.A.I.8X,.9X                      ",
"                      9XB =.n.7.n.N.N.N.K.I.U.I.Y.Y.1XT.L.T.T.8XL.K.C.B.o.:.                        ",
"                            wX<X;XM.>.<.>.,.,.,.,...;.,.o.;.;...o.-.>.4.>X                          ",
"                                                      wXwXqXqX                                      ",
"                                                                                                    ",
"                                                                                                    ",
"                                                                                                    ",
"                                                                                                    ",
"                                                                                                    ",
"                                                                                                    ",
"                                                                                                    ",
"                                                                                                    ",
"                                                                                                    ",
"                                                                                                    ",
"                                                                                                    ",
"                                                                                                    "
};
