/* XPM */
static char *_5fb86aa25a34e9bd4037db6f4bfd3508oOmAJOAgQl3jHiu[] = {
/* columns rows colors chars-per-pixel */
"50 50 33 1 ",
"  c #020200",
". c #030301",
"X c #020202",
"o c gray1",
"O c #040300",
"+ c #040301",
"@ c #070300",
"# c #040203",
"$ c #070302",
"% c #030400",
"& c #020401",
"* c #030502",
"= c #050400",
"- c #040500",
"; c #060501",
": c #050601",
"> c #040402",
", c #050402",
"< c #050503",
"1 c #060503",
"2 c #040603",
"3 c #050304",
"4 c #070304",
"5 c #030504",
"6 c #040404",
"7 c gray2",
"8 c #060405",
"9 c #060604",
"0 c #070604",
"q c #080401",
"w c #080403",
"e c #090305",
"r c #080405",
/* pixels */
"oo66oo>ooooooooo66oo>>>>>>oo>>>>>>00>060>6:6:>6666",
"6666>oo>6oooooooooo>>>>>66ooo>>>0>>>0>0:0*0>>>6666",
"o66ooooo6ooooooooo>>oo>>>>oooo>>>>>>>>060>>>:>>>>>",
"o66ooooooooooooo>oooo>>o>>6ooo>>>0>>>0*>*0>>>:>>>>",
"o66ooooo>ooooooo>o>>>>**>>>>ooo>>>>>6666*60*>>>66:",
"6ooooooo>ooooooooo>o>>**>>>>>oo>>>>>66660>>>>>*>0>",
"66o>>o>o>oooooooo>o>>>>>>>q>>o**o>66>o>>>>66>>66>0",
"oo>oooo>>>o>>ooooo>>oo>>>>>>>oo*>>66>>>>>>66>>660>",
"666ooo6oooo6ooo6oo**66>>>w>q>>>>o>>>>>66>>>>>>>>>0",
"66ooo66o6666>>>>o**>66>>0>>0>>>>o*>>>>>>>>6>>>>>0>",
">oo6oo66>>66>>6>Oo>>>Oq>>>>6q>>>ooo>>>>>>>>>>:>>*0",
">>o6o6o6>>66>o6>>>O>>>>>>>>q>>>>oooo>>>>>>>>:>>>6>",
">>66o>>oo>66o>>>>>>o>>>>q>>>00q0>Oooo>>>>o>>>>>>:6",
">>6*ooo>>>66>o>>>>>o>oO>>q>>>6w>>>oooooo*ooo>>>>>0",
">>>6oo>o>>o6>ooo>>o>ooo>>>>>>6w0>>oooooo>o*>>>>>0>",
">>>6o>>>o>>>>o>>>o>ooo*>q>q>06qqO>>>ooooo>O>>>>>**",
">O>>>OO>>>66o>>O>O>>oooooO>q>qqew6OOOOooooo>o>>>>>",
">>>>>>>>o>oo>>oO*O>Oooooo>Oq>>qOww6>oO>>oo>>o>oo>>",
">>>>>>6>>oo6>oooOO>Ooooooo>>>>3>Ow6Oooooo>>>>o>>::",
">>>>>>>66o>>>oooO>>>>ooooo>>>q>>qwwq>>>>>>>>>>>>>:",
">>>>>>>>oooo>oOoO6O>>Oooooo>>>>q>>q>>>6Ooo>>>>>>>>",
">>>>>>>>ooooo>O3OOOoooooooo>O>>>>q6>>>>>>>>>>>>>>>",
"6w>>w6>>>>ooo>oo63o3>oo>ooooOO>q>>>>>>33>>>>>6>>>>",
">>6>66>>6>ooo>**OO5oo>>oooooOO>>6q>>O>33>>O>>q>>>>",
">>33>>OO>q3Ooo66ooooooooooooooOO>>o>>>q>>>OOO>>>>>",
">>33>>6w>>33OoooooooooooooooooOO>>>>>>>>q>6>>>>>>>",
">>66q6qw>q3OoooOoooooooooooooooo>>>>>>qee>>>>>>>:>",
"q>w66>ew6333OoooooooooooooooooooOOq>qOeOq>>>>O>>>0",
">>>>>>q>6qw>OOooooooooooooooooooooO>qOeqqq>>*>O>0>",
">>>>>60>q6OeOOooooooooooooooooooooO>>OOOq>>>*>>>q0",
">>>>>>>>63>>O3O3ooooooooooooooooOOOO>>qeq>>>>0>>>>",
"66>>>>>q3w>>w>OOooooooooooooooooO3OOOOq>>>>>>>>>>>",
"66>>>>q>q>eO>>>qooooooooooooooooooooo>>>q>>q>>>>>>",
"66>>>q>>:q3wq36Oooooooooooooooooooooo>>>>>>>>>>>>>",
"66>>>>6wwqwrwOO>oooooooooooooooooooo>>>>>>>q>>>>>>",
"6>>>>>>qwwwrweq>ooooooooooooooooooooOOq>>>>>>>>>>>",
">>>:>>>>wwe3>6>>ooooooooooooooooooooooO>>>>>>>>>>>",
">>>:>>*06w83>q>qoooooooooooooooooooooo>>>>>>6>>>>>",
">>w6>>>>6wew6OO6oooooooooooooooooooooo>>>>>>>>>6>>",
">>w0:>00>>rw>Oq>oooooooooooooooooooooooo>>>>q>>>>>",
">0>060>0>wwe33O6>oooooooooooooooooooo>oo>>>>>>>>>>",
">>0>:q0>>>6633o3ooooo*ooooooooooooooooo>*>>>>>>>0>",
"0>q0w00>w0>>>>>>oooooooooooooooooooooooo>>>>>>>660",
"0>06>>>>>>>>>>>oooooooooooooo>ooooo>oo>o>>>>>>>0:6",
">*>>0>0>>>>>>>>>oooooooooooooooooo>>*>>>>*>0>>>>q0",
"0*>66:>0>>>>>>>Ooooooooooooooo>o>>o>>>>>>>>>>>:60>",
"60>>60>:>>>>>>63ooooo>>oooooo>oo>>>>>>>>>>>>0>6000",
"06:>>:>>>>>>oooOooooooooooooooooo>>>>>>>>>>>>0>>0>",
"85585666>>55355oooooO>oooooooooo>>>oo>>>>>>6>:6:60",
"85586666>6*3533ooooo6>ooo>o>>>>>>>>oo>0>>>q0>>0w0>"
};
