/* XPM */
static char *result[] = {
/* columns rows colors chars-per-pixel */
"50 50 206 2 ",
"   c #0B0A0F",
".  c #0E0D12",
"X  c #100F14",
"o  c #121116",
"O  c #151519",
"+  c #18171D",
"@  c #1A191E",
"#  c #171820",
"$  c #1C1C22",
"%  c #1C1C25",
"&  c #201F25",
"*  c #201F28",
"=  c #1E2127",
"-  c #212026",
";  c #23222A",
":  c #2E2E37",
">  c #2F333C",
",  c #34343B",
"<  c #3B363D",
"1  c #3A363C",
"2  c #312F38",
"3  c #562E19",
"4  c #633318",
"5  c #713D1C",
"6  c #4C342D",
"7  c #52362D",
"8  c #56382C",
"9  c #4C3936",
"0  c #4B3B3C",
"q  c #553A32",
"w  c #5C3D33",
"e  c #533C36",
"r  c #673B22",
"t  c #5B4037",
"y  c #7A4729",
"u  c #634135",
"i  c #6D4C3D",
"p  c #694638",
"a  c #724B3B",
"s  c #754B33",
"d  c #7C523A",
"f  c #6F4129",
"g  c #353A43",
"h  c #3B3C45",
"j  c #3C3E4A",
"k  c #363641",
"l  c #433D44",
"z  c #443F47",
"x  c #3E414B",
"c  c #3D4047",
"v  c #4C4346",
"b  c #42434D",
"n  c #4D444A",
"m  c #404B4F",
"M  c #574948",
"N  c #434551",
"B  c #474954",
"V  c #494A55",
"C  c #4C4E5B",
"Z  c #484752",
"A  c #554C54",
"S  c #574E58",
"D  c #584D55",
"F  c #4E515C",
"G  c #475255",
"H  c #51525E",
"J  c #5A515A",
"K  c #54575A",
"L  c #684F49",
"P  c #684D47",
"I  c #734F44",
"U  c #6C5248",
"Y  c #735344",
"T  c #7B5643",
"R  c #735449",
"E  c #7D5A4C",
"W  c #795849",
"Q  c #635353",
"!  c #6A5652",
"~  c #6D5955",
"^  c #6C5B5C",
"/  c #745B53",
"(  c #7B5D53",
")  c #725E5B",
"_  c #795E58",
"`  c #7D6057",
"'  c #78625D",
"]  c #4E5262",
"[  c #535564",
"{  c #5C5761",
"}  c #555C64",
"|  c #5B5B65",
" . c #565A6A",
".. c #5A5C6D",
"X. c #655C63",
"o. c #695E64",
"O. c #625E6C",
"+. c #5C636C",
"@. c #5B676A",
"#. c #5F6271",
"$. c #6E6165",
"%. c #6E656D",
"&. c #61686F",
"*. c #736365",
"=. c #626D72",
"-. c #686978",
";. c #667275",
":. c #697376",
">. c #6D7A7D",
",. c #6A777B",
"<. c #717F7F",
"1. c #864D2A",
"2. c #874E2A",
"3. c #8D532E",
"4. c #91542E",
"5. c #855235",
"6. c #8D5433",
"7. c #84553B",
"8. c #8A563A",
"9. c #86593F",
"0. c #8C5B3D",
"q. c #935633",
"w. c #955A35",
"e. c #9B5C34",
"r. c #965C3A",
"t. c #9A5D3A",
"y. c #945735",
"u. c #9C613A",
"i. c #A36236",
"p. c #A5643B",
"a. c #A9663B",
"s. c #AE6A3D",
"d. c #A86437",
"f. c #B46D3E",
"g. c #B96E3F",
"h. c #B9703F",
"j. c #835A43",
"k. c #8C5D43",
"l. c #825D4B",
"z. c #8A5E4A",
"x. c #815543",
"c. c #935F40",
"v. c #815F51",
"b. c #8D624A",
"n. c #88604A",
"m. c #946244",
"M. c #9B6643",
"N. c #94644C",
"B. c #9C694B",
"V. c #846254",
"C. c #8A6657",
"Z. c #936955",
"A. c #9B6A53",
"S. c #A36741",
"D. c #A56A43",
"F. c #AC6B42",
"G. c #A46C4B",
"H. c #AA6D49",
"J. c #B26E42",
"K. c #B86F40",
"L. c #AD714E",
"P. c #B57044",
"I. c #BB7344",
"U. c #BD764A",
"Y. c #BA764C",
"T. c #AB7253",
"R. c #AF7A5D",
"E. c #B37653",
"W. c #846963",
"Q. c #93746B",
"!. c #C4794C",
"~. c #C3794B",
"^. c #6F7181",
"/. c #737D83",
"(. c #748385",
"). c #7E8C8D",
"_. c #798487",
"`. c #808E8D",
"'. c #859494",
"]. c #899595",
"[. c #8B9B9C",
"{. c #879798",
"}. c #909E9E",
"|. c #8C9FA0",
" X c #909EA1",
".X c #8EA2A2",
"XX c #93A4A4",
"oX c #93A6A8",
"OX c #98A7A8",
"+X c #96A9A9",
"@X c #9BACAC",
"#X c #99A7A7",
"$X c #9DB1AF",
"%X c #9DAFB0",
"&X c #9FB2B1",
"*X c #A1AFAE",
"=X c #A2B3B3",
"-X c #A7B9B9",
";X c #AABABB",
":X c #A7B7B7",
">X c #AEC1C0",
",X c #B3C3C3",
"<X c #BECECE",
"1X c #C0CFD0",
"2X c #C1D1D2",
"3X c None",
/* pixels */
"3X3X3X3X3X3X3X3X3X3X3X3X3X3X3X3X3X3X3X3X3X3X3X3X3X3X3X3X3X3X3X3X3X3X3X3X3X3X3X3X3X3X3X3X3X3X3X3X3X3X",
"3X3X3X3X3X3X3X3X3X3X3X3X3X3X3X3X3X3X3X3X3X3X3X3X3X3X3X3X3X3X3X3X3X3X3X3X3X3X3X3X3X3X3X3X3X3X3X3X3X3X",
"3X3X3X3X3X3X3X3X3X3X3X3X3X3X3X3X3X3X3X3X3X3X3X3X3X3X3X3X3X3X3X3X3X3X3X3X3X3X3X3X3X3X3X3X3X3X3X3X3X3X",
"3X3X3X3X3X3X3X3X3X3X3X3X3X3X3X3X3X3X3X3X3X3X3X3X3X3X3X3X3X3X3X3X3X3X3X3X3X3X3X3X3X3X3X3X3X3X3X3X3X3X",
"3X3X3X3X3X3X3X3X3X3X3X3X3X3X3X3X3X3X3X3X3X3X3X3X3X3X3X3X3X3X3X3X3X3X3X3X3X3X3X3X3X3X3X3X3X3X3X3X3X3X",
"3X3X3X3X3X3X3X3X3X3X3X3X3X3X3X3X3X3X3X3X3X3X3X3X3X{.;X;X;X;X3X3X3X3X3X3X3X3X3X3X3X3X3X3X3X3X3X3X3X3X",
"3X3X3X3X3X3X3X3X3X3X3X3X3X3X3X3X3X3X3X3X3X3X].@XOX+X-X,X1X1X+X#X}.3X3X3X3X3X3X3X3X3X3X3X3X3X3X3X3X3X",
"3X3X3X3X3X3X3X3X3X3X3X3X3X3X3X3X3X3X3X3X:X,X[.@XXX=X-X@X=X;X;X;X[.=X=X3X3X3X3X3X3X3X3X3X3X3X3X3X3X3X",
"3X3X3X3X3X3X3X3X3X3X3X3X3X3X3X3X3X3X].|.+X:X].@X=X+X{.:.`.@X,X>X}.:X=X&X}.3X3X3X3X3X3X3X3X3X3X3X3X3X",
"3X3X3X^. .N V 3X3X3X3X3X3X3X3X3X=X}.>.|..X@X+X(.;.B c h b B :._.#X@X[.XX<.#X=X3X3X3X3X3X3X3X3X3X3X3X",
"3X3X3X-. .V { [ ] 3X3X3X3X3X3X@X%X:X[.[..X].} , b C b c F A v g @.{.OX[.[.2X=X@X3X3X3X3X3X3X3X3X3X3X",
"3X3X3X&...S j.C.%.#.[ 3X3X3X*X+XXX.XoX[.;.x Z Z , ; & ; b q s ! V b :.'.=X+X&X-X*X3X3X3X3X3X3X3X3X3X",
"3X3X3X#...A 4.f.M.` -...3X3X'.[.$X@X[.} c Z , - $ $ $ ; C 8 y 5.j.Q x } @X|.XX$X+X3X3X3X3X3X3X3X3X3X",
"3X3X3X.. .A 6.Z.u.u.B.*.+.| :.XX-X@X} x n ; % $ @ $ @ ; H 8 f W.0.S.' m G {.oXXX<.].3X3X3X3X3X3X3X3X",
"3X3X3X . .S 8.T.M.i.f.p./ ../.).].} h h - $ @ @ @ + o = S 8 5.L.e.h.r.L m K '.>.'.+X}.3X3X3X3X3X3X3X",
"3X3X3X[ ..S t.~.F.p.I.s.y V.&. X} k h ; & $ @ @ O o o % [ w 3.~.a.P.w.y./ g K XXXXXX=X3X3X3X3X3X3X3X",
"3X3X3X[ ..D t.!.F.a.U.f.1.a.' +.c c ; = $ @ O O O X . % [ w 4.~.p.U.e.e.M.A m {.|.XX&X3X3X3X3X3X3X3X",
"3X3X3XC ..S t.!.J.p.~.P.1.s.0.C c > = $ @ O o o X X . # ] w q.U.S.I.e.q.a.p c >.+X|.@X@X3X3X3X3X3X3X",
"3X3X3XC ..J t.!.P.S.~.F.f s.w.! c - @ @ @ O o X X . . # [ w q.!.F.J.x.P W s M F +X+X=X=X3X3X3X3X3X3X",
"3X3X3XV  .J u.!.P.p.~.l.G ` w.E j - - @ + O X X . .   + ] w y.U.p.F.( ~ Q T Y h `.@X@X@X3X3X3X3X3X3X",
"3X3X3XV  .S t.!.P.t.~.v.M ! T l.b ; $ @ O X X X       O ] q y.~.u.F.k.B.z.( W > G {.].3X3X3X3X3X3X3X",
"3X3X3XV  .S r.!.G.j.L.A.d n.) / z % @ @ O X . X X     # ] q 8.W.^ ^ o.) *.&.J g +.>X:X=X3X3X3X3X3X3X",
"3X3X3XB  .S r.T.o.X.X.o.o.%.+.[ N * $ O o o o X X . . # C w 8.C./ ( / _ ' o.^ > +.>X:X*X3X3X3X3X3X3X",
"3X3X3XB  .D t.U.N.E A.Z.T v.^ ' j % @ O o o o X . . . # C w e.Y.p.P.k.m.z.` n., @.$XXX@X3X3X3X3X3X3X",
"3X3X3XB  .A r.!.F.t.U.C.p R U b.l * + + o o o X X .   # ] w t.!.p.Y.( Q Q b.u., @.{.[.%X3X3X3X3X3X3X",
"3X3X3XB  .D e.!.p.r.P.( H ~ 5.b.l * # + O o o o X X X # C w q.~.p.~.0.U b.d.u.1 @.(.|.@X3X3X3X3X3X3X",
"3X3X3XZ [ D r.R.l.y.p.H.d B.e.m.l # & O O O o o X X   # C w 2.N.W.E.e.a.K.s.r., G ,.).).3X3X3X3X3X3X",
"3X3X3XZ  .D y.Q.{ 8.F.I.w.f.u.u.0 * # @ O O O o o X . % C q 1.v.-.T.p.a.K.f.0., @.-X:X=X3X3X3X3X3X3X",
"3X3X3XV  .D 8.C.D 6.J.I.e.F.i.m.k % # # O O o o o o   # C 7 y R ~ b.p.a.I.f.0., ,.,X,X-X3X3X3X3X3X3X",
"3X3X3XV [ A a x.T I J.I.e.s.i.c.< % & # # O O O o o . % C 7 w C.8.I r.p.I.h.0., /.-X&X@X3X3X3X3X3X3X",
"3X3X3XV [ A a x.0.I J.U.e.J.e.c.1 * # @ # o O O o o . % z 7 w A.5.I t.p.h.f.k., (.;XoX&X3X3X3X3X3X3X",
"3X3X3XV [ D 8.z.i k.I.D.a m.4.8.< & & @ # O O o O o X % C 7 y.c.a B.p.i.g.g.0., ,.+XXX+X3X3X3X3X3X3X",
"3X3X3XS [ A y.U.r.S.U.E D Q 7.k.1 % % @ @ + O O O o o $ B q e.I.p.P.u.5.a.I.9., @.[.].).3X3X3X3X3X3X",
"3X3X3XC [ n y.~.t.J.U.N.a R / m.1 % $ $ @ + O O O o o % N 7 q.I.i.J.E J / D.7., ).;X-X=X3X3X3X3X3X3X",
"3X3X3XH [ V y.Y.V.( C.V.W V.o.! 1 % & @ @ + @ O O O O = B q 4.U.i.J.l.E R V.9., ;.[.&X-X3X3X3X3X3X3X",
"3X3X3XH ] n y.F._ ^ ^ ^ o.$.+.{ , & & $ @ @ @ @ @ + O $ B w 3.G.k.M.b.k.n.^ ! , } +X-X&X3X3X3X3X3X3X",
"3X3X3X[ ] v q.I.a.F.P.m.0.l.) / , & & & $ @ $ @ @ @ @ = b t 5.$.^ { $.X.%.+.[ g ;.+XXX}.3X3X3X3X3X3X",
"3X3X3X[ [ n e.h.a.f.P./ P L E k.2 * & & & & @ @ @ @ @ = Z u 6.B.j.m.b.T z.o.~ g (.#X).'.3X3X3X3X3X3X",
"3X3X3X| ] n q.I.a.s.P.j.J E e.9.: - - - & @ $ $ @ $ @ = b t 2.S.e.s.n.i U E d g  X,X.X+X3X3X3X3X3X3X",
"3X3X3X..] v 6.h.i.a.h.u.6.s.u.d : - - - & & $ $ = @ - - N w p W.3.u.W D Q 5.i h [.>X&X$X3X3X3X3X3X3X",
"3X3X3X..[ n 5.m.w.i.h.p.e.s.e.d : ; - - - - & & & & $ ; N 6 3 f 4 5 5 8 r 4 8 j [.@X%XoX3X3X3X3X3X3X",
"3X3X3X#.] v 8.Z.w.i.h.d.e.d.u.i : - ; - - - - - & - - ; N v 9 e 9 e e 9 e 9 l N [.+X%X:X3X3X3X3X3X3X",
"3X3X3X-.] 0 y.J.4.u.p.0.i Y t m : ; - ; - - - ; - - - ; B  ... . . ... .} ] C V XX=X=X:X3X3X3X3X3X3X",
"3X3X3X-.[ b I R M v n b b h c c 3X3X3X3X3X3X3X3X3X3X3X3X3X3X3X3X3X3X3X3X3X3X3X3X3X*X=X3X3X3X3X3X3X3X",
"3X3X3X-.[ x x j x x N 3X3X3X3X3X3X3X3X3X3X3X3X3X3X3X3X3X3X3X3X3X3X3X3X3X3X3X3X3X3X3X3X3X3X3X3X3X3X3X",
"3X3X3X3X[ x 3X3X3X3X3X3X3X3X3X3X3X3X3X3X3X3X3X3X3X3X3X3X3X3X3X3X3X3X3X3X3X3X3X3X3X3X3X3X3X3X3X3X3X3X",
"3X3X3X3X3X3X3X3X3X3X3X3X3X3X3X3X3X3X3X3X3X3X3X3X3X3X3X3X3X3X3X3X3X3X3X3X3X3X3X3X3X3X3X3X3X3X3X3X3X3X",
"3X3X3X3X3X3X3X3X3X3X3X3X3X3X3X3X3X3X3X3X3X3X3X3X3X3X3X3X3X3X3X3X3X3X3X3X3X3X3X3X3X3X3X3X3X3X3X3X3X3X",
"3X3X3X3X3X3X3X3X3X3X3X3X3X3X3X3X3X3X3X3X3X3X3X3X3X3X3X3X3X3X3X3X3X3X3X3X3X3X3X3X3X3X3X3X3X3X3X3X3X3X",
"3X3X3X3X3X3X3X3X3X3X3X3X3X3X3X3X3X3X3X3X3X3X3X3X3X3X3X3X3X3X3X3X3X3X3X3X3X3X3X3X3X3X3X3X3X3X3X3X3X3X"
};
