/* XPM */
static char *f05ba8f038f44018bcaa4b38ef63370dQaqzqsKW4Pgxun8c[] = {
/* columns rows colors chars-per-pixel */
"50 50 183 2 ",
"   c #030C13",
".  c #031B2B",
"X  c #031F31",
"o  c #797E06",
"O  c #747808",
"+  c #6E711E",
"@  c #737628",
"#  c #043B5C",
"$  c #7D8106",
"%  c #828607",
"&  c #848907",
"*  c #888D07",
"=  c #81850B",
"-  c #8B9007",
";  c #939807",
":  c #969B08",
">  c #979C10",
",  c #AB9B08",
"<  c #9FB10D",
"1  c #A0A608",
"2  c #A3A908",
"3  c #A2B40D",
"4  c #ACB20A",
"5  c #A7B80D",
"6  c #ABBC0D",
"7  c #B5BB09",
"8  c #A6AC17",
"9  c #ADB219",
"0  c #B5BB14",
"q  c #9A9E36",
"w  c #A1A626",
"e  c #A4A923",
"r  c #F19A08",
"t  c #F1A709",
"y  c #F1AC09",
"u  c #EFBE09",
"i  c #F0B70A",
"p  c #AFC00D",
"a  c #B3C30D",
"s  c #BAC60C",
"d  c #BCCA0D",
"f  c #BCC211",
"g  c #C0C70D",
"h  c #C2CE0C",
"j  c #CBD207",
"k  c #C5D20D",
"l  c #CAD40B",
"z  c #CDD90C",
"x  c #D0D70B",
"c  c #D5DC09",
"v  c #D3DD0C",
"b  c #DBCD11",
"n  c #CDD51D",
"m  c #D7DE14",
"M  c #D8DE14",
"N  c #D5DB1A",
"B  c #EEC309",
"V  c #EECB0A",
"C  c #EDD40B",
"Z  c #EDDC0B",
"A  c #D6E10C",
"S  c #DCE50C",
"D  c #DFE90C",
"F  c #DBE211",
"G  c #E5E30A",
"H  c #ECE30B",
"J  c #E4EC0B",
"K  c #ECEC0C",
"L  c #E7F00C",
"P  c #EBF30C",
"I  c #ECEF15",
"U  c #ECEC1B",
"Y  c #ECF112",
"T  c #CDD325",
"R  c #CDD22C",
"E  c #D0D524",
"W  c #C7CC37",
"Q  c #C9CE32",
"!  c #CCD132",
"~  c #EFDC3D",
"^  c #EDE727",
"/  c #EEE924",
"(  c #EDE42C",
")  c #EEE035",
"_  c #F0E038",
"`  c #9EA141",
"'  c #9DA053",
"]  c #868769",
"[  c #B6B767",
"{  c #C4CA40",
"}  c #C4C848",
"|  c #C5C949",
" . c #C6C958",
".. c #EFDA44",
"X. c #F0D946",
"o. c #F0D64B",
"O. c #F1CF5B",
"+. c #F0D352",
"@. c #F1D059",
"#. c #DAE14D",
"$. c #C5C764",
"%. c #C7CA65",
"&. c #C8CA6C",
"*. c #C6C773",
"=. c #C8C977",
"-. c #CACB7B",
";. c #D2D77B",
":. c #E1E67E",
">. c #045483",
",. c #3C6D89",
"<. c #236B96",
"1. c #3D7494",
"2. c #046EAC",
"3. c #0A72AF",
"4. c #1F71A1",
"5. c #0B75B2",
"6. c #0577B8",
"7. c #426F89",
"8. c #53768B",
"9. c #597B8F",
"0. c #427491",
"q. c #027CC3",
"w. c #648192",
"e. c #6B8494",
"r. c #798B97",
"t. c #0480C7",
"y. c #0182CC",
"u. c #0186D3",
"i. c #0291E4",
"p. c #989889",
"a. c #87959E",
"s. c #AEAE8A",
"d. c #B6B68C",
"f. c #A8A994",
"g. c #8F9AA2",
"h. c #98A0A6",
"j. c #A8ABA8",
"k. c #B4B4AF",
"l. c #B3B5B7",
"z. c #BEBFB1",
"x. c #BBBBBD",
"c. c #C9CA86",
"v. c #CBCC98",
"b. c #DFE488",
"n. c #E3E78E",
"m. c #CCCBA8",
"M. c #D0CEAD",
"N. c #D2D2A3",
"B. c #D3D2AC",
"V. c #C6C3BA",
"C. c #D5D4B5",
"Z. c #D7D7BA",
"A. c #D9D8BE",
"S. c #CAC9C7",
"D. c #D3D2C5",
"F. c #DDDBC6",
"G. c #DDDBCA",
"H. c #CDCDD2",
"J. c #D8D5D5",
"K. c #DEDDD2",
"L. c #DEDCDC",
"P. c #E2DFD2",
"I. c #E1DEDE",
"U. c #E5E3DD",
"Y. c #DEDEE0",
"T. c #E5E3E3",
"R. c #EBE7E5",
"E. c #E8E7E8",
"W. c #EDEAEA",
"Q. c #F1ECEC",
"!. c #F5F3E4",
"~. c #F5F2EC",
"^. c #F2EFF1",
"/. c #F5F2F4",
"(. c #F8F6F6",
"). c #FBF8F7",
"_. c #F7F5F9",
"`. c #F9F6F9",
"'. c #FAF8F9",
"]. c #FCF8F8",
"[. c #FDF9F9",
"{. c #FEFAFA",
"}. c #FEFAFC",
/* pixels */
"3 5 < < 3 3 6 d k a p 6 6 6 a p p a a a p 6 3 3 < < 3 < 5 5 p a h k k h d d a 6 3 3 3 3 < < 3 3 3 3 ",
"5 v z k k A J L Y J J J D J J L J J J L J D v k h h d l A D D L L P P P P L L J A z k a d l A A a < ",
"5 S P P P P P P P P P P P P P P P P P P P P P P Y P P P P P P P P P P P P P P P P P P L P P P P a < ",
"5 S P P P P P P P P P P P P P P Y P P P P P P P P P P P P P P P P P P P P P P P P P P P P P P P d < ",
"5 S P P P P P P P P P P P P P P P P P P P P P P P P P P P P P P P P P P P P P P P P P P P P P P k < ",
"5 S P P P P v k J P P P P P P P P P P P P P P P P P P P P P P P P P P P P L P P P P P P P P P P z 3 ",
"5 S P P P A 5 3 S P P P P P P P P P P P P P P P P P P P P P P P P P P P P P P P P P P P P P P P k 3 ",
"a L P P P d < 6 J P P P P P P P P P P P P P P P P P P P P P P P P P P P P P P P P P P S k J P P d < ",
"l P P P D 6 < d P P P P P J J J j J j L P P P P P P P P P P D D K c P S P P P P P Y J p 5 S P P d < ",
"z P P P J a d L P P P P P 2 7 l * S $ J P P P P P P P P P Y a 2 S % S & S P P P P P z < 6 K P P z < ",
"k P P P P L L P P P P P P 7 ; l % x $ P P P P P P P P P P P s * M $ c o G P P P P P l < z P P P A 3 ",
"a L P P P z A P P P P P P j o f $ 0 % L P P P P P P P P P P x o g O s $ L P P P P P S l J P P P z 3 ",
"5 S P P J 6 A P P P P P A } s.C.H.D.m.-.W S P P P P P P P F } s.M.V.M.d. .N P P P P P P P P P P A 3 ",
"5 D P P J z L P P P L W M.W.'.'.'.'.'._.U.c.E P P P P J } C.^.}.}.}.}.}.~.A. .S P P P P P P P P J p ",
"5 S P P P Y P P P L } K.`.'.(.(.(.(._.`.(.(.M.T P P G $.R.}.}.].].].).).}.}.W.*.S P P P P P P P L a ",
"5 S P P P P P P P Q K.'._.(.(.(.(.(.(.(.(.(.(.m.m P  .R.}.].].].].].].).).).'.~.%.L P P P P P P J p ",
"5 S P P P P P P S v._.(.(.(.(.(.(.(.(.Q.(.(.(.^. .n F.}.).].}.).}.].].].].].].}.P.R P P P P P P z 3 ",
"p L P P P P P P R U.(.(.(.(.(.(.(.H.w.0.e.H.'.].B.[ /.).).J.a.e.j.Q.}.].].].].].`.*.L P P P P P d < ",
"a P P P P P P P %./.(.(.(.(._.).U.7.u.i.u.7.R.].Y.V.}.}.L.,.y.i.5.r.).].].].].].}.B.S P P P P P z < ",
"a P P P P P L L -._.(.(.(.(.).].l.6.6.X 3.5.x.}.E.J.}.}.h.t.3.# u.<.I.}.].].].].}.F.M P P P P P S 6 ",
"p L P P P P P J -._._.(.(.(.(.].x.5.6.. 2.5.x.].T.L.].}.g.y.>.  6.4.J.}.].].].].}.F.N P P P P P D 6 ",
"6 D P P P P P L %./.(.(.(.(.(.(.E.8.q.u.6.9.W.'.L.V.}.}.S.<.u.y.q.9.~.].].].].].}.C.S P P P P P z < ",
"5 S P P P P P P R U.(.(.(.(.(.(.(.L.a.9.a.U.'.~.;.{ b.!.).x.9.1.r.I.}.].].].].].].-.J P P P P P d < ",
"5 S P P P P P P D v._.(.(.(.(.(.(.(.}.(.}.(.(.b.J P J n.}.}./.W.).}.].].].].).'.U.! P P P P P P a < ",
"5 S P P P P P P P R F.`.(.(.(.(.(.(.(.(.(.).~.#.P P P :.}.].].}.).].].).).).}./.*.J P P P P P P d < ",
"5 S P P P P L P K Z W J.`.(.(._.(.(.(.(.(./.m.n P P J %.Q.}.).).}.].].].}.{./.c.M K P P P P P P k < ",
"5 S P P P P P K B i B Q N.W._._.(.`._._.U.=.n J P P A A $.G.).'.].}.}.}.).U.$.b y u C J P P P P A 3 ",
"5 S P P P P H B K i B Z A W c.C.A.Z.N.&.R D P P P J A P K T &.N.F.P.G.B.&.T G V y Z C B P P P P z 3 ",
"5 S P P P P Z r u u P Z K P J S m F S L P P P P P S J P P P P S F E N S K P H K V V t u P P P P h < ",
"a J P P P P K B H C 4 7 K P P P P P P P P P P P P P P P P P P P P P P P P K K 7 , Z C C P P P P a < ",
"k P P P P P P Z H D o o S P P P P P P P P P P P P P P P P P P P P P P P P P j O O J Z K P P Y L a < ",
"h P P P P P P P H K K s & c P P P P P P P P P P P P P P P P P P P P P P K 2 = j S K K P P P P P a 3 ",
"s L P P P P P P P P P P d % j P P P P P P P P P P P P P P P P P P P P j = 1 J P P P P P P P P K a < ",
"6 D P P P P P P P P P P P z & 4 P P P P P P P P P P P P P P P P P c : * l P P P P P P P P P P P a < ",
"3 D P P P P J l L P P P P P S : - x P P P P P P P P P P P P P A 2 = 7 J P P P P P P P P P P P P k < ",
"5 D P P P P d 5 D P P P P P P P s % 1 x P P P P P P P P J j : & 4 J P P P P P P P P P P P P P P D 5 ",
"5 S P P P L p d P P P P P P P P P K 7 - * 8 h l c g 0 e ' ] > J P P P P P P P P P P L S J P P P D p ",
"5 S P P P L A J P P P P P P P P P P P P 4 p.z.f.@ + l.Y.`.S.f P P P P P P P P P P J d 3 k P P P A 6 ",
"5 S P P P P P P P P P P P P P P P P P P d z.}./.` w T.}.].S.a P P P P P P P P P L d 3 3 h P P P k 3 ",
"5 S P P P P P P S J P P P P P P P P P P g f.Y.H.q e S.L.Y.j.f P P P P P U Y P P A 3 3 3 v P P P a 3 ",
"5 S P P P P P l 5 s P P P P P ) / P P P D 9 e e l A 9 e e 9 J P P P P ) ..Y P P d 3 < d L P P L a < ",
"5 D P P P P A 5 3 6 J P P P P / +.I P P P P P I _ X./ P P P P P P P ..~ Y P P P d 3 a J P P P L a < ",
"5 S P P P P d < 3 d P P P P P P ( O.) U U _ o.X..._ @.+./ P P P U ..) L P P P P S v J P P P P P d 3 ",
"3 S P P P J 5 3 3 c P P P P P P P U ..X.o.o.( Y P P Y _ @.@.O.+.@.) P P P P P P P P Y P P P P P z 3 ",
"5 S P P P D 5 < d P P P P P P P P P P P P P P P P P P P P I ^ ^ Y P P P P P P P P P z z P P P P A 3 ",
"p J P P P P k k L P P P P P P P P P P P P P P P P P P P P P P P P P P P P P Y P P z 3 d P P P P z 3 ",
"d P P P P P P P P P P P P P P P P P P P P P P P P P P P P P P P P P P P P P P P L a 6 S P P P P d 3 ",
"z P P P P P P P P P P P P P P P P P P P P P P P P P P P P P P P P P P P P P P P P z A P P P P P a < ",
"k S S S z l A J L D z l k z D L L L D D z k z A L P P D z k k k h k h k k h k l F P P P D z k k 6 < ",
"3 p 6 5 < < 3 p a 5 3 < < < 6 d d a p 3 3 < < 5 a k h p 3 < < < < 3 < 3 3 < < < 6 d z z a < < < < < "
};
