/* XPM */
static char *_4939a8a295344cfcd948444b8dd8a4aJTJSZyjxJwoqD7dp[] = {
/* columns rows colors chars-per-pixel */
"50 50 157 2 ",
"   c #6E441B",
".  c #71461B",
"X  c #73481C",
"o  c #72481D",
"O  c #74491D",
"+  c #754A1D",
"@  c #764A1D",
"#  c #764B1D",
"$  c #774B1D",
"%  c #754A1E",
"&  c #774C1D",
"*  c #774C1E",
"=  c #784C1D",
"-  c #784C1E",
";  c #784D1E",
":  c #794D1E",
">  c #784C1F",
",  c #784D1F",
"<  c #794D1F",
"1  c #794E1F",
"2  c #7A4E1E",
"3  c #7A4F1E",
"4  c #7B4F1E",
"5  c #7B4F1F",
"6  c #7C4F1E",
"7  c #7C4F1F",
"8  c #7C501E",
"9  c #7D511E",
"0  c #7C501F",
"q  c #7D511F",
"w  c #7E511F",
"e  c #7E521F",
"r  c #7F5320",
"t  c #80531F",
"y  c #81531F",
"u  c #805320",
"i  c #815320",
"p  c #815420",
"a  c #825420",
"s  c #825520",
"d  c #835620",
"f  c #845720",
"g  c #845721",
"h  c #855721",
"j  c #855820",
"k  c #865821",
"l  c #865921",
"z  c #875921",
"x  c #875A21",
"c  c #855822",
"v  c #865922",
"b  c #865925",
"n  c #865A25",
"m  c #875A25",
"M  c #875A26",
"N  c #885A21",
"B  c #895A21",
"V  c #885A22",
"C  c #895A22",
"Z  c #895B22",
"A  c #895B23",
"S  c #8A5B22",
"D  c #8A5C22",
"F  c #8B5C22",
"G  c #8B5D22",
"H  c #8A5C23",
"J  c #8C5D22",
"K  c #8D5E23",
"L  c #885B26",
"P  c #895C26",
"I  c #895C27",
"U  c #8A5C26",
"Y  c #8A5D26",
"T  c #8B5D26",
"R  c #8A5C27",
"E  c #8B5E27",
"W  c #8D5F24",
"Q  c #8E5F24",
"!  c #8F6024",
"~  c #8E6027",
"^  c #8F6127",
"/  c #8E6028",
"(  c #8F6128",
")  c #8E6129",
"_  c #916124",
"`  c #916224",
"'  c #926224",
"]  c #926324",
"[  c #936324",
"{  c #946324",
"}  c #946424",
"|  c #956424",
" . c #946425",
".. c #956525",
"X. c #966525",
"o. c #966625",
"O. c #976625",
"+. c #976725",
"@. c #986725",
"#. c #986825",
"$. c #996825",
"%. c #996826",
"&. c #996926",
"*. c #9A6926",
"=. c #9B6926",
"-. c #9B6A26",
";. c #916328",
":. c #926428",
">. c #936428",
",. c #926429",
"<. c #936529",
"1. c #946529",
"2. c #946629",
"3. c #956629",
"4. c #96682D",
"5. c #97682D",
"6. c #97692D",
"7. c #98692D",
"8. c #A07131",
"9. c #A17232",
"0. c #A27232",
"q. c #A27332",
"w. c #A47433",
"e. c #A57533",
"r. c #A57534",
"t. c #A57634",
"y. c #A67634",
"u. c #A77634",
"i. c #A77734",
"p. c #A87734",
"a. c #A87834",
"s. c #A97834",
"d. c #A97934",
"f. c #AC7B36",
"g. c #AC7C37",
"h. c #AD7C37",
"j. c #AE7D37",
"k. c #AF7E38",
"l. c #BE8C3E",
"z. c #BF8D3F",
"x. c #C08D3F",
"c. c #C08E3F",
"v. c #C18E40",
"b. c #C89443",
"n. c #C89543",
"m. c #C99543",
"M. c #C99643",
"N. c #CA9643",
"B. c #CA9644",
"V. c #CB9744",
"C. c #CB9844",
"Z. c #CC9844",
"A. c #CC9845",
"S. c #CC9945",
"D. c #CD9945",
"F. c #CE9A45",
"G. c #CE9A46",
/* pixels */
") y.e.e.e.e.e.e.e.e.e.e.e.e.e.e.e.e.e.e.e.e.e.e.e.e.e.e.e.e.e.e.e.e.e.e.e.e.e.e.e.e.e.e.e.e.e.e.a.) ",
"y.G.Z.G.G.Z.F.F.G.Z.Z.G.F.Z.F.F.F.F.F.F.Z.G.G.Z.F.F.F.F.F.F.F.F.G.G.Z.G.F.Z.F.F.F.F.F.F.Z.G.G.Z.G.e.",
"e.G.G.Z.G.Z.G.Z.G.G.V.G.G.Z.G.Z.G.Z.G.Z.G.C.G.C.G.Z.G.Z.G.Z.G.Z.G.V.G.C.G.Z.G.Z.G.Z.G.Z.G.Z.G.Z.G.e.",
"e.G.Z.G.Z.G.Z.G.N.G.G.G.Z.G.Z.G.Z.G.Z.G.G.C.G.G.Z.G.Z.G.Z.G.Z.G.G.V.G.G.Z.G.Z.G.Z.G.Z.G.Z.G.Z.G.G.e.",
"e.Z.G.Z.G.Z.G.Z.C.G.G.C.G.C.C.G.G.Z.C.G.G.C.C.G.G.C.G.C.G.Z.Z.G.C.G.G.C.V.G.A.G.G.Z.G.G.V.G.G.Z.Z.e.",
"e.G.Z.G.Z.G.N.N.b.b.b.b.N.N.N.N.N.C.N.N.N.N.N.N.C.M.M.C.C.N.N.N.n.V.n.V.N.N.b.b.N.N.n.N.N.G.Z.G.F.e.",
"e.G.N.G.G.N.q.e.y.y.y.6.m m Y m Y Y m L L L L L L L L L L L L L A R m Y m Y q.y.e.e.e.8.N.V.G.G.F.e.",
"e.Z.G.G.V.N.e.N.V.C.C.z.L & : e y y p p r p p p y e p p p y y y p p p p : y.N.C.N.N.N.w.N.G.G.N.F.e.",
"e.F.G.Z.G.b.e.V.G.G.G.Z.x.>.x Z o.-.-.%.-.%.-.-.&.&.&.&.&.&.&.&.&.-.@.K s.G.G.N.G.G.C.y.b.Z.G.Z.F.e.",
"e.F.Z.G.G.b.e.V.G.V.Z.G.G.x.>.x A %.%.-.%.-.%.@.&.&.&.-.-.&.&.-.&.&.Q s.V.G.G.V.N.G.V.y.b.G.Z.G.F.e.",
"e.F.G.Z.C.b.e.N.G.Z.G.Z.Z.G.x.1.x S @.-.-.%.&.-.&.&.-.&.@.-.-.@.&.J p.N.G.G.G.G.G.G.N.y.b.G.G.Z.F.e.",
"e.F.Z.G.G.N.y.G.Z.G.Z.G.G.G.G.x.,.x A %.%.-.-.&.&.-.&.-.=.-.-.@.! e.G.G.G.V.V.G.G.Z.N.q.n.Z.Z.G.F.e.",
"e.F.G.Z.G.N.6.l.G.G.G.Z.G.Z.G.Z.v.>.x x @.-.-.&.-.-.-.-.=.-.&.Q p.G.G.Z.Z.G.A.G.Z.G.e.Y N.G.N.Z.F.e.",
"e.F.Z.G.Z.N.m m l.G.Z.G.Z.G.Z.G.G.v.>.x x J K S J Z J K K F S p.V.Z.Z.G.G.Z.G.A.G.e.o m N.Z.G.G.F.e.",
"e.F.G.Z.G.N.Y   m x.G.G.G.Z.G.Z.C.G.v.>.g p _ _ _ _ _ _ _ x p.A.Z.G.Z.G.Z.G.A.G.y.: 0 _ b.G.Z.G.F.e.",
"e.F.Z.G.Z.N.:.8   m x.G.Z.G.Z.G.G.G.G.v.>.x J &.-.-.=.-.K p.A.G.G.Z.G.Z.G.Z.G.y.5 r o.1.N.Z.G.Z.F.e.",
"e.G.Z.G.G.n.) r % % R v.G.G.G.A.G.G.V.G.x.1.x Z &.&.&.K s.V.G.G.Z.G.Z.G.Z.G.y.5 r o.@.1.b.G.Z.G.F.e.",
"e.Z.G.Z.C.N.:.r 6 S % A x.G.A.G.C.G.G.G.G.l.>.x Z o.J p.G.G.G.A.G.Z.G.Z.G.e.5 r { &.@.1.N.Z.G.Z.F.e.",
"e.Z.Z.G.G.N._ r 0 o.J : A v.A.A.Z.G.V.G.G.G.v.>.x g s.V.Z.G.A.G.Z.G.G.G.e.: p o.&.&.@.1.b.G.Z.G.F.e.",
"e.G.G.C.G.n.,.r 0 o.&.Z > A v.G.G.G.N.G.G.G.G.x.Y p.G.G.G.Z.G.Z.G.A.G.y.: y o.&.-.&.&.1.N.Z.G.Z.F.e.",
"e.F.G.Z.G.N._ 8 6 _ o.o.z % A v.G.Z.A.G.Z.G.C.j.f.V.Z.G.Z.G.Z.G.A.G.e.: 7 _ o.o.o.{ _ { V.A.Z.G.F.e.",
"e.Z.Z.G.Z.b.>.r & S Z S S g % R l.G.G.A.G.N.j.j.G.Z.G.Z.G.Z.G.Z.G.y.% 6 S S S A F F S ,.b.G.G.Z.F.e.",
"e.F.G.Z.G.N.:.t 0 o.&.&.-.@.K = Y v.G.G.C.j.f.N.G.N.Z.G.Z.G.Z.G.y.5 i o.&.&.%.-.&.-.@.1.V.G.A.G.F.e.",
"e.F.Z.G.G.N.:.0 0 @.&.&.&.&.&.A = A z.G.j.f.Z.G.G.G.G.Z.G.G.C.e.> i o.&.&.&.-.%.-.&.@.1.b.A.G.A.F.e.",
"e.F.G.Z.G.N.:.0 5 o.&.&.&.-.%.-.Z : Y e.j.N.Z.G.Z.G.Z.G.Z.V.e.: r o.&.&.-.@.%.-.-.&.&.1.N.Z.G.Z.F.e.",
"e.F.Z.G.Z.N.:.y r o.&.&.=.@.-.%.&.Z : e.C.Z.G.Z.G.Z.G.G.Z.j.Y x x @.&.&.-.-.-.%.&.&.o.1.N.G.Z.G.F.e.",
"e.F.G.Z.G.N.:.e 7 o.-.-.=.%.-.-.&.! a.G.G.G.Z.G.Z.G.Z.N.y.l.l.>.x S &.&.@.@.=.-.-.&.@.1.b.G.G.Z.F.e.",
"e.F.Z.G.Z.N.:.e 7 o.%.@.-.-.%.%.! s.V.G.N.G.G.G.G.Z.N.j.s.C.G.v.>.S Z &.-.-.=.-.&.-.&.>.N.N.Z.G.F.e.",
"e.G.Z.G.G.N._ r % x S S S S x x s.V.G.V.G.G.V.N.G.G.s.j.C.G.C.G.x.1.x p S A S A S S z K n.Z.G.Z.F.e.",
"e.Z.G.Z.Z.N.) r r _ { o.o.{ S e.G.G.G.G.V.G.G.G.N.j.j.C.C.G.G.G.G.x.>.g g { { o.{ o.{ ,.N.G.Z.G.F.e.",
"e.Z.Z.G.G.N.:.0 5 o.-.-.@.K a.G.Z.G.V.G.V.G.G.G.e.y.G.G.V.G.C.G.V.G.v.>.x S @.=.&.-.&.1.N.Z.G.G.F.e.",
"e.F.G.C.G.N.:.e 5 o.%.-.K s.V.Z.G.G.N.G.G.G.C.y.o A l.G.G.G.V.G.G.G.G.v.,.x S @.-.&.@.1.N.G.Z.G.F.e.",
"e.F.G.Z.C.V.,.0 0 o.&._ s.V.G.V.G.Z.G.Z.G.Z.p.: : & Y l.G.G.A.G.A.G.Z.G.x.1.x Z &.&.@.1.N.V.G.G.F.e.",
"e.F.Z.G.G.n.,.0 0 o.J a.G.G.G.G.Z.G.Z.G.G.e.: t o.Z = Y z.G.G.A.G.A.G.Z.G.x.>.x S &.&.1.N.G.G.V.F.e.",
"e.F.G.Z.C.V.,.r 0 Z s.V.Z.G.V.G.G.Z.G.G.e.: p O.-.&.J : E v.G.G.Z.G.Z.G.Z.G.x.1.x x o.>.N.G.G.N.F.e.",
"e.F.Z.G.G.n._ r : p.G.G.G.G.N.G.Z.G.G.y.: : J :.o._ _ p o A l.G.G.Z.G.Z.G.G.G.x.>.x x ,.b.Z.G.G.F.e.",
"e.F.G.Z.G.N._ r e.G.Z.G.Z.G.Z.G.G.A.y.% 6 S J F Z J F J g % R v.G.Z.G.A.G.A.G.Z.v.>.x Y N.G.Z.G.F.e.",
"e.F.Z.G.Z.N.) i.G.Z.G.Z.G.Z.G.Z.A.y.: i { -.-.-.-.&.-.-.-.F > A x.G.A.G.Z.G.Z.G.G.v.) ! n.Z.G.Z.F.e.",
"e.F.G.Z.G.n.q.N.Z.G.Z.G.Z.G.Z.G.y.5 i o.-.&.&.-.&.-.&.-.@.@.J = A v.G.G.G.Z.G.Z.G.G.l.7.n.G.Z.G.F.e.",
"e.F.Z.G.Z.N.e.C.G.Z.G.Z.G.Z.G.e.5 i { -.@.-.-.&.-.&.-.@.-.-.-.J : A z.G.Z.G.Z.G.Z.G.C.e.b.Z.G.Z.F.e.",
"e.G.Z.G.G.b.y.V.Z.G.V.G.G.G.e.: 0 o.-.&.&.-.&.-.-.&.-.-.&.&.&.&.Y = E v.G.G.G.G.G.Z.V.y.b.V.G.G.F.e.",
"e.Z.G.Z.G.b.y.N.G.Z.G.G.N.e.: r :.o.&.@.@.@.&.&.$.&.&.-.@.@.&.+.@.x % A l.G.C.G.Z.G.V.y.b.G.G.V.F.e.",
"e.Z.Z.G.A.b.e.N.N.N.C.V.y.% : p g x x x y x g y y y y y y S x g y x r o m l.V.N.N.C.N.e.b.G.G.N.F.e.",
"e.G.G.Z.G.N.q.q.e.e.e.q.E I ! >._ ,.,._ o.>.:.:.2.+.:.:.:.:.>._ :.:._ Y m 4.e.e.e.e.e.q.N.Z.G.G.F.e.",
"e.F.G.Z.Z.G.N.b.b.b.b.b.n.V.n.N.N.N.b.N.b.N.N.N.C.N.n.N.N.N.N.N.N.N.b.N.N.n.b.b.b.b.b.N.Z.G.Z.G.F.e.",
"e.Z.Z.G.G.Z.Z.G.G.Z.G.Z.G.C.G.C.Z.G.G.N.G.G.V.Z.G.G.G.C.Z.G.G.Z.G.G.G.C.G.Z.C.G.G.Z.G.Z.G.Z.G.Z.F.e.",
"e.F.G.Z.Z.G.Z.G.Z.G.Z.G.G.G.G.C.G.Z.G.Z.N.G.Z.G.Z.G.G.N.G.Z.G.Z.Z.G.Z.G.Z.G.Z.G.Z.G.Z.G.Z.G.Z.G.F.e.",
"e.F.Z.G.G.Z.G.Z.G.Z.G.G.N.V.G.G.Z.G.Z.G.Z.G.G.Z.G.Z.G.G.Z.G.Z.G.G.Z.G.Z.G.Z.G.Z.G.Z.G.Z.G.Z.G.Z.F.e.",
"a.G.G.G.Z.G.Z.F.F.F.F.F.F.F.F.F.F.F.F.F.F.F.F.F.F.F.F.F.F.F.F.F.Z.G.Z.G.Z.F.F.F.F.F.F.F.F.F.F.F.F.a.",
",.e.e.e.e.e.e.e.e.e.e.e.e.e.e.e.e.e.e.e.e.e.e.e.e.e.e.e.e.e.e.e.e.e.e.e.e.e.e.e.e.e.e.e.e.e.e.e.e.) "
};
